<svg xmlns="http://www.w3.org/2000/svg" version="1.1" xmlns:xlink="http://www.w3.org/1999/xlink" xmlns:svgjs="http://svgjs.com/svgjs" width="1000" height="1000"><rect width="1000" height="1000" rx="200" ry="200" fill="#ede5bb"></rect><g transform="matrix(25,0,0,25,99.99995422363281,99.9999771118164)"><svg xmlns="http://www.w3.org/2000/svg" version="1.1" xmlns:xlink="http://www.w3.org/1999/xlink" xmlns:svgjs="http://svgjs.com/svgjs" width="32" height="32"><svg width="32" height="32" viewBox="0 0 32 32" version="1.1" id="SVGRoot" xmlns="http://www.w3.org/2000/svg" xmlns:svg="http://www.w3.org/2000/svg">
  <defs id="defs55"></defs>
  <g id="layer1">
    <path class="cls-1" d="m 30.495,16.01 c 0,1.8 -0.41,3.47 -1.22,4.99 -0.81,1.52 -2,2.86 -3.56,4 -1.37,0.97 -2.85,1.69 -4.45,2.17 -1.6,0.48 -3.35,0.72 -5.26,0.72 -1.91,0 -3.64,-0.24 -5.29,-0.73 -1.65,-0.48 -3.14,-1.2 -4.46,-2.16 -1.56,-1.15 -2.74,-2.47 -3.55,-3.97 -0.81,-1.5 -1.2,-3.19 -1.2,-5.07 0,-1.88 0.35,-3.41 1.05,-4.79 0.7,-1.38 1.79,-2.65 3.28,-3.82 1.4,-1.12 2.95,-1.94 4.67,-2.46 1.72,-0.52 3.55,-0.78 5.5,-0.78 1.95,0 3.87,0.26 5.54,0.79 1.67,0.53 3.15,1.3 4.46,2.31 1.52,1.16 2.64,2.46 3.38,3.9 0.74,1.44 1.1,3.07 1.1,4.89 z m -3.98,0.11 c 0,-1.54 -0.3,-2.91 -0.89,-4.12 -0.59,-1.21 -1.62,-2.27 -3.07,-3.2 -0.86,-0.55 -1.86,-0.98 -3.01,-1.29 -1.15,-0.31 -2.31,-0.46 -3.48,-0.46 -1.44,0 -2.71,0.16 -3.8,0.47 -1.09,0.31 -2.16,0.83 -3.2,1.54 -1.22,0.83 -2.11,1.84 -2.69,3.01 -0.58,1.17 -0.87,2.46 -0.87,3.86 0,1.68 0.36,3.13 1.07,4.35 0.71,1.22 1.76,2.24 3.14,3.08 0.84,0.51 1.79,0.89 2.85,1.16 1.06,0.27 2.19,0.4 3.41,0.4 1.29,0 2.53,-0.17 3.73,-0.5 1.19,-0.34 2.22,-0.79 3.07,-1.38 1.26,-0.83 2.2,-1.84 2.81,-3.01 0.61,-1.17 0.92,-2.48 0.92,-3.92 z" id="path127" style="fill: rgb(149, 38, 31); --darkreader-inline-fill: #e1736c;" data-darkreader-inline-fill=""></path>
  </g>
</svg></svg></g></svg>